<?xml version="1.0" standalone="no"?>
<!DOCTYPE svg PUBLIC "-//W3C//DTD SVG 20010904//EN"
 "http://www.w3.org/TR/2001/REC-SVG-20010904/DTD/svg10.dtd">
<svg version="1.0" xmlns="http://www.w3.org/2000/svg"
 width="50pt" height="50pt" viewBox="0 0 1024.000000 1024.000000"
 preserveAspectRatio="xMidYMid meet">

<g transform="translate(0.000000,1024.000000) scale(0.100000,-0.100000)"
fill="#000000" stroke="none">
<path d="M4835 8569 c-355 -33 -725 -128 -1055 -269 -1027 -439 -1758 -1285
-2020 -2340 -57 -230 -78 -372 -89 -629 -38 -832 219 -1610 753 -2275 184
-230 501 -523 727 -674 904 -603 2014 -760 3024 -428 500 165 987 469 1336
834 538 562 816 1101 943 1822 41 234 49 344 43 641 -4 249 -7 290 -35 454
-50 284 -123 535 -227 780 -390 914 -1180 1635 -2120 1938 -227 73 -491 127
-720 147 -139 11 -430 11 -560 -1z m1303 -2966 c-4 -1457 -1 -1380 -74 -1603
-110 -333 -358 -574 -714 -693 -150 -51 -277 -70 -450 -70 -351 1 -636 103
-872 313 -134 118 -268 345 -328 551 -29 104 -60 273 -60 334 l0 31 348 58
c191 32 351 58 356 59 5 1 19 -47 32 -108 47 -220 95 -330 186 -430 89 -97
252 -156 388 -140 151 19 250 78 326 195 54 83 60 100 87 220 20 93 21 118 24
1343 l4 1247 375 0 375 0 -3 -1307z"/>
</g>
</svg>
